<?xml version="1.0" standalone="no"?>
<!DOCTYPE svg PUBLIC "-//W3C//DTD SVG 20010904//EN"
 "http://www.w3.org/TR/2001/REC-SVG-20010904/DTD/svg10.dtd">
<svg version="1.0" xmlns="http://www.w3.org/2000/svg"
 width="148.000000pt" height="148.000000pt" viewBox="0 0 148.000000 148.000000"
 preserveAspectRatio="xMidYMid meet">
<metadata>
Created by potrace 1.11, written by Peter Selinger 2001-2013
</metadata>
<g transform="translate(0.000000,148.000000) scale(0.100000,-0.100000)"
fill="#000000" stroke="none">
<path d="M612 1468 c-29 -4 -69 -15 -90 -24 -20 -8 -45 -17 -54 -19 -10 -2
-50 -23 -90 -46 -86 -50 -202 -161 -250 -239 -36 -58 -85 -168 -94 -210 -22
-112 -26 -146 -20 -230 11 -185 73 -330 200 -468 135 -146 311 -223 511 -226
190 -3 322 39 463 147 350 268 389 781 85 1099 -97 100 -214 169 -346 204 -68
18 -233 24 -315 12z"/>
</g>
</svg>
